# xmcd
#
# Track frame offsets:
#	150
#	18510
#	35198
#	52926
#	75430
#	96262
#	111286
#	130326
#	148422
#	170510
#	192662
#	210038
#	233110
#	248726
#
# Disc length: 3588 seconds
#
# Revision: 0
# Processed by: cddbd v1.5.2PL0 Copyright (c) Steve Scherf et al.
# Submitted via: dBpowerAMP V4.0
#
DISCID=c20e020e
DTITLE=Mike Wells - Suited For Abiding - disc 1
DYEAR=1900
DGENRE=
TTITLE0=Suited For Abiding 01-01
TTITLE1=Suited For Abiding 01-02
TTITLE2=Suited For Abiding 01-03
TTITLE3=Suited For Abiding 01-04
TTITLE4=Suited For Abiding 01-05
TTITLE5=Suited For Abiding 01-06
TTITLE6=Suited For Abiding 01-07
TTITLE7=Suited For Abiding 01-08
TTITLE8=Suited For Abiding 01-09
TTITLE9=Suited For Abiding 01-10
TTITLE10=Suited For Abiding 01-11
TTITLE11=Suited For Abiding 01-12
TTITLE12=Suited For Abiding 01-13
TTITLE13=Suited For Abiding 01-14
EXTD=free from www.gracehead.com
EXTT0=
EXTT1=
EXTT2=
EXTT3=
EXTT4=
EXTT5=
EXTT6=
EXTT7=
EXTT8=
EXTT9=
EXTT10=
EXTT11=
EXTT12=
EXTT13=
PLAYORDER=
